<svg width="26" height="26" viewBox="0 0 26 26" fill="none" xmlns="http://www.w3.org/2000/svg">
<path d="M25.8 13.0943C25.7996 10.6482 25.0984 8.25347 23.7793 6.19356C22.4602 4.13366 20.5785 2.49486 18.3569 1.47116C16.1354 0.447456 13.6671 0.0817319 11.2441 0.41728C8.82118 0.752829 6.54513 1.7756 4.6854 3.36451C2.82568 4.95342 1.46017 7.04192 0.750523 9.38278C0.040881 11.7236 0.016827 14.2188 0.681209 16.5729C1.34559 18.927 2.67059 21.0415 4.49933 22.6659C6.32808 24.2904 8.584 25.3569 11 25.7391L11 16.7943H7.75041L7.75041 13.0943H11L11 10.2743C11 7.06626 12.9112 5.29426 15.8344 5.29426C16.7944 5.30757 17.7522 5.39099 18.7 5.54386L18.7 8.69426L17.0856 8.69426C16.8105 8.65772 16.5307 8.68356 16.2669 8.76986C16.0032 8.85615 15.7622 9.0007 15.5619 9.19278C15.3616 9.38487 15.2071 9.61956 15.1098 9.87948C15.0126 10.1394 14.975 10.4179 15 10.6943L15 13.0943L18.5504 13.0943L17.9824 16.7943H15L15 25.7391C18.011 25.2627 20.7532 23.7274 22.7331 21.4093C24.7129 19.0913 25.8005 16.1427 25.8 13.0943Z" fill="#4DC9A4"/>
</svg>
