<svg width="24" height="25" viewBox="0 0 24 25" fill="none" xmlns="http://www.w3.org/2000/svg">
<path d="M23.5064 9.91263L12.052 9.91263L12.052 14.8214L18.544 14.8214C17.504 18.0942 14.944 19.1854 12 19.1854C10.8594 19.1869 9.73527 18.9133 8.72298 18.3877C7.71069 17.8621 6.84013 17.1001 6.18516 16.1663C5.53018 15.2325 5.11013 14.1544 4.96063 13.0237C4.81113 11.8929 4.93661 10.7428 5.32641 9.67084C5.71621 8.59891 6.35883 7.63682 7.19974 6.86622C8.04066 6.09561 9.05505 5.53922 10.1569 5.24426C11.2587 4.94929 12.4154 4.92446 13.5288 5.17187C14.6423 5.41928 15.6796 5.93162 16.5528 6.66543L20.12 3.26783C18.6835 1.94471 16.9458 0.992177 15.0577 0.492937C13.1696 -0.00630305 11.1882 -0.0371671 9.28543 0.403024C7.38269 0.843216 5.61614 1.74116 4.13914 3.01891C2.66213 4.29665 1.51931 5.91558 0.809874 7.73517C0.100438 9.55475 -0.15417 11.52 0.0681522 13.4603C0.290475 15.4006 0.983008 17.2573 2.08564 18.8692C3.18826 20.4812 4.66766 21.7997 6.3954 22.7102C8.12314 23.6207 10.047 24.0958 12 24.0942C18.6168 24.0942 24.5976 19.7302 23.5064 9.91263Z" fill="#4DC9A4"/>
</svg>
